PathFileType	4	(X/Y/Z)	C:/Users/opensim2020/Desktop/walking_exp_matlab/subject01_walking04_straight_01.trc	
DataRate	CameraRate	NumFrames	NumMarkers	Units	OrigDataRate	OrigDataStartFrame	OrigNumFrames	
100.00	100.00	4	43	mm	100.00	920	216	
Frame#	Time	LFHD			RFHD			LBHD			RBHD			C7			T10			CLAV			STRN			RBAK			LSHO			LUPA			LELB			LFRM			LWRA			LWRB			LFIN			RSHO			RUPA			RELB			RFRM			RWRA			RWRB			RFIN			LASI			RASI			LPSI			RPSI			LTHI			LKNE			LTIB			LANK			LHEE			LTOE			RTHI			RKNE			RTIB			RANK			RHEE			RTOE			*39			*40			*41			*42			
		X1	Y1	Z1	X2	Y2	Z2	X3	Y3	Z3	X4	Y4	Z4	X5	Y5	Z5	X6	Y6	Z6	X7	Y7	Z7	X8	Y8	Z8	X9	Y9	Z9	X10	Y10	Z10	X11	Y11	Z11	X12	Y12	Z12	X13	Y13	Z13	X14	Y14	Z14	X15	Y15	Z15	X16	Y16	Z16	X17	Y17	Z17	X18	Y18	Z18	X19	Y19	Z19	X20	Y20	Z20	X21	Y21	Z21	X22	Y22	Z22	X23	Y23	Z23	X24	Y24	Z24	X25	Y25	Z25	X26	Y26	Z26	X27	Y27	Z27	X28	Y28	Z28	X29	Y29	Z29	X30	Y30	Z30	X31	Y31	Z31	X32	Y32	Z32	X33	Y33	Z33	X34	Y34	Z34	X35	Y35	Z35	X36	Y36	Z36	X37	Y37	Z37	X38	Y38	Z38	X39	Y39	Z39	X40	Y40	Z40	X41	Y41	Z41	X42	Y42	Z42	X43	Y43	Z43	

109	1.080	-1103.74719	26.13858	1667.39124	-990.28290	38.53896	1677.64197	-1095.03308	-84.75258	1609.55579	-974.55566	-74.98243	1618.98230	-1044.07776	-109.32777	1425.80103	-1025.95581	-140.64119	1132.63452	-1045.23950	34.54210	1358.81519	-1044.99951	80.12494	1204.79529	-956.68024	-159.86168	1234.04675	-1206.06482	-33.02071	1378.75037	-1279.61182	-71.49728	1189.97058	-1272.90576	-92.98015	1043.40125	-1296.00427	-70.51778	932.27289	-1274.48523	-11.29898	805.76508	-1301.49878	-65.41933	809.91315	-1303.83801	-31.25538	730.70410	-892.12848	-24.26599	1391.45227	-784.03101	-81.91910	1196.83008	-775.57214	-80.66242	1070.41602	-742.54248	-37.46799	956.95374	-759.40576	60.30632	854.83582	-721.67798	16.63857	848.61041	-719.89331	67.01491	780.39355	-1131.87109	37.09263	929.45898	-915.61517	28.29241	922.20380	-1088.45239	-151.18536	942.59131	-943.15845	-154.70241	945.12628	-1180.95374	66.94343	606.92047	-1157.61548	82.89857	474.81924	-1165.98364	50.97016	286.35239	-1111.27295	39.10263	70.09492	-1060.47290	-7.34310	40.91384	-1109.91211	187.98825	36.62319	-853.63507	-51.72287	589.60071	-869.45892	-72.77962	431.82013	-879.30890	-221.68733	334.44397	-931.99554	-364.45123	186.76195	-991.29907	-409.63275	201.54999	-941.50085	-327.54382	44.91739	-1014.13708	22.50163	1709.33276	-3101.86499	1973.12195	1023.35083	-3140.69995	2012.50415	1021.89111			 
110	1.090	-1104.88037	36.69517	1667.95911	-991.42444	48.91643	1678.23267	-1096.42395	-74.44460	1610.55762	-975.85608	-64.75421	1619.92615	-1045.42810	-99.75206	1426.58752	-1027.57239	-130.90645	1133.29736	-1046.32947	44.26940	1359.60193	-1046.09509	89.78365	1205.59497	-958.07343	-150.28088	1234.84778	-1207.15784	-22.84926	1379.83496	-1281.53015	-59.65655	1191.09668	-1275.05640	-79.62862	1044.11780	-1298.19263	-55.34794	933.30206	-1276.03174	5.26754	807.34192	-1303.85486	-48.35220	811.05231	-1306.15039	-12.94370	732.39520	-893.41943	-14.48129	1392.30103	-784.90796	-72.41358	1197.87195	-777.57916	-72.25043	1071.19165	-744.18390	-30.84791	957.23596	-760.35809	65.92078	853.76807	-722.96246	21.46984	848.01923	-721.31848	71.23473	778.97327	-1133.21997	46.67422	929.75995	-916.46362	38.35291	923.47461	-1089.50964	-141.51331	943.13525	-944.07831	-145.13705	945.24078	-1181.94922	71.99100	605.84631	-1158.81689	87.63389	473.80963	-1165.62341	52.66493	286.01563	-1111.06787	39.38438	70.03632	-1060.46509	-7.40567	41.09098	-1110.11560	188.25761	36.59765	-853.84985	-34.80204	589.20508	-869.55280	-52.40179	431.28317	-878.04736	-202.55099	337.10318	-932.12830	-348.46811	193.87865	-991.39728	-393.63586	210.26135	-940.11542	-316.79300	50.28338	-1015.36005	33.02561	1709.92651	-3102.02881	1972.85645	1023.83362	-3140.53906	2012.53711	1022.03290			 
111	1.100	-1106.01343	47.22583	1668.65442	-992.40918	59.37820	1678.91772	-1097.65442	-64.11736	1611.61597	-977.06409	-54.58482	1620.92468	-1046.64648	-89.94753	1427.35962	-1029.16772	-121.44219	1134.08167	-1047.29700	53.96728	1360.35535	-1046.99963	99.37529	1206.35474	-959.60651	-140.82658	1235.73340	-1208.17847	-12.59244	1380.88916	-1283.40576	-47.71302	1192.24573	-1277.19189	-66.35936	1044.79785	-1300.50745	-40.13313	934.31891	-1278.16785	22.44676	809.29028	-1306.29358	-30.99955	812.24963	-1308.43335	5.69335	734.17053	-894.51666	-4.81049	1392.92859	-785.75970	-62.78703	1198.71301	-779.33051	-63.87357	1071.83862	-745.69745	-24.13838	957.29712	-761.58734	71.32040	852.46857	-724.23340	26.60853	847.44519	-722.83423	75.34200	777.50177	-1134.40918	56.08434	930.00543	-917.41736	47.98380	924.69397	-1090.65649	-132.04280	943.63928	-945.17981	-135.82964	945.20502	-1183.06555	77.06316	604.91040	-1159.87866	92.06220	472.83676	-1165.65259	55.01132	285.66934	-1110.82422	39.67139	70.13605	-1060.32422	-7.21353	41.28066	-1110.09790	188.53090	36.42017	-854.31403	-17.96673	589.40259	-869.70142	-31.82586	431.41779	-877.30530	-183.16779	339.91769	-932.63934	-332.12915	200.70935	-992.25531	-376.70450	217.19171	-937.31854	-303.07715	56.08606	-1016.39673	43.56483	1710.58862	-3101.98901	1973.17249	1023.24927	-3140.79175	2012.42798	1021.87030			 
112	1.110	-1106.83508	57.62012	1669.36401	-993.41174	69.74070	1679.48413	-1098.58423	-53.88659	1612.69189	-978.03314	-44.37986	1622.01770	-1047.79248	-80.21423	1428.32324	-1030.72583	-112.07852	1135.02222	-1048.11987	63.58424	1361.08459	-1047.85120	108.80975	1207.02063	-961.29675	-131.59604	1236.57202	-1209.03613	-2.28465	1381.87573	-1285.31091	-35.71411	1193.40857	-1279.39270	-53.19372	1045.44458	-1302.84058	-24.93516	935.30792	-1280.41895	39.82518	811.44623	-1308.75818	-13.50269	813.45782	-1310.86499	24.62545	736.09558	-895.43634	4.65174	1393.42932	-786.65619	-53.41776	1199.30859	-780.82031	-55.32392	1072.37927	-747.11749	-17.51643	957.33954	-762.75641	76.59792	851.18420	-725.50153	31.92619	846.77057	-724.15454	79.56360	776.18256	-1135.34778	65.39319	930.13794	-918.32166	57.30266	925.83258	-1091.71973	-122.74618	944.06512	-946.23798	-126.72131	945.05945	-1183.79138	82.18671	604.28687	-1160.66089	96.44232	471.99991	-1165.75610	58.03435	285.36115	-1110.54053	40.15520	70.27996	-1060.00269	-6.96403	41.42991	-1109.92041	188.85469	36.21786	-854.87396	-1.66838	590.23706	-869.84668	-11.51239	432.19644	-877.40778	-163.54814	342.42581	-933.30188	-315.25845	206.78258	-993.87549	-359.30011	222.35431	-933.93158	-287.14835	61.70401	-1017.14063	54.00475	1711.35059	-3101.96484	1973.10681	1023.80341	-3140.61133	2012.48853	1021.91089			 
